<?xml version="1.0" standalone="no"?>
<!DOCTYPE svg PUBLIC "-//W3C//DTD SVG 20010904//EN"
 "http://www.w3.org/TR/2001/REC-SVG-20010904/DTD/svg10.dtd">
<svg version="1.0" xmlns="http://www.w3.org/2000/svg"
 width="500.000000pt" height="500.000000pt" viewBox="0 0 500.000000 500.000000"
 preserveAspectRatio="xMidYMid meet">
<metadata>
Created by potrace 1.11, written by Peter Selinger 2001-2013
</metadata>
<g transform="translate(0.000000,500.000000) scale(0.100000,-0.100000)"
fill="#000000" stroke="none">
<path d="M0 2500 l0 -2500 2500 0 2500 0 0 2500 0 2500 -2500 0 -2500 0 0
-2500z m3147 1838 l652 -652 39 27 c75 53 149 60 227 23 92 -43 177 -163 190
-267 3 -24 2 -82 -3 -129 -5 -47 -5 -86 0 -88 4 -2 8 -9 8 -15 0 -7 72 -84
160 -172 l160 -160 -97 -97 -98 -98 98 -97 97 -98 -95 -95 -95 -95 100 -100
100 -100 -595 -595 -594 -595 90 -105 c49 -58 100 -108 112 -111 12 -3 45 -19
72 -36 82 -48 110 -56 175 -50 72 6 155 48 230 117 30 28 58 50 62 50 13 0 19
-20 20 -61 1 -51 -45 -120 -152 -228 -88 -90 -148 -134 -232 -168 -102 -41
-222 -29 -317 32 -20 12 -73 60 -119 106 -46 46 -96 95 -110 109 -15 14 -39
41 -54 60 l-27 35 -325 -325 -326 -325 -480 480 -480 480 -92 -91 c-116 -114
-220 -194 -306 -236 -57 -28 -76 -33 -142 -32 -91 0 -172 31 -304 118 -182
118 -293 256 -341 420 -20 69 -17 211 9 438 17 150 31 213 78 356 l30 94 -28
29 -28 29 61 63 c41 42 65 77 76 108 l15 46 -89 89 -89 89 100 100 100 100
-90 90 c-49 49 -90 94 -90 100 0 10 2070 2085 2080 2085 3 0 299 -293 657
-652z"/>
<path d="M1475 3920 l-1010 -1010 80 -80 81 -80 187 188 c121 123 187 196 187
210 0 11 15 40 33 64 18 24 68 95 111 158 234 342 452 541 610 557 l54 6 338
338 339 339 560 -559 560 -560 79 85 79 86 -634 634 c-349 349 -636 634 -639
634 -3 0 -460 -454 -1015 -1010z"/>
<path d="M2176 4234 c-169 -168 -306 -306 -305 -308 2 -1 25 -10 50 -19 25
-10 73 -39 106 -66 l60 -49 209 209 209 209 267 -267 c147 -147 269 -265 271
-263 1 3 15 23 29 46 53 83 118 79 173 -10 26 -43 30 -59 29 -115 0 -40 -7
-78 -17 -97 l-16 -31 88 -87 88 -87 71 76 c40 43 72 80 72 84 0 3 -242 248
-537 543 l-538 537 -309 -305z"/>
<path d="M2308 3943 l-196 -198 24 -37 c13 -21 36 -72 51 -115 23 -67 27 -94
27 -193 0 -126 -15 -197 -62 -283 -35 -65 -136 -157 -225 -206 -103 -58 -237
-85 -237 -49 0 5 13 28 29 51 15 23 47 78 69 122 22 44 47 89 56 100 l16 20
-5 -20 c-13 -49 99 197 130 287 27 78 35 113 33 159 -2 32 -5 54 -6 49 -2 -6
-7 -8 -11 -6 -4 3 -195 -183 -424 -412 l-416 -417 -61 -128 c-33 -71 -74 -161
-90 -200 l-31 -71 373 -373 c205 -205 377 -372 382 -370 5 2 26 32 47 67 66
114 74 125 92 128 42 8 43 -116 1 -274 l-15 -58 123 -123 c113 -114 123 -121
131 -100 5 12 24 94 43 182 47 219 78 322 129 435 24 52 47 112 50 133 4 20
11 40 16 43 5 3 9 21 9 39 0 19 18 79 40 134 21 55 51 141 65 191 45 160 110
308 151 347 13 12 24 31 24 42 0 11 32 91 71 178 39 87 100 224 135 305 71
165 82 185 136 245 21 24 38 46 38 50 0 5 -116 124 -258 266 l-257 257 -197
-197z"/>
<path d="M1910 3680 c12 -10 11 -11 -7 -7 -13 3 -23 1 -23 -5 0 -6 -7 -7 -16
-4 -8 3 -12 2 -9 -4 5 -8 -64 -51 -82 -50 -4 1 9 10 30 21 20 11 37 22 37 24
0 3 -18 -4 -40 -15 -22 -11 -39 -24 -37 -29 1 -4 -29 -34 -66 -66 -87 -74
-202 -217 -320 -398 -52 -78 -97 -149 -102 -157 -4 -8 148 140 338 330 191
189 343 347 339 351 -4 4 -18 10 -32 14 -20 5 -22 4 -10 -5z"/>
<path d="M3776 3415 c-25 -20 -46 -39 -46 -43 0 -13 159 -166 165 -160 13 13
18 194 6 216 -18 35 -69 29 -125 -13z"/>
<path d="M3117 3291 c-151 -272 -277 -543 -380 -821 -96 -259 -104 -295 -22
-105 49 114 146 307 151 302 2 -2 -18 -66 -45 -143 -48 -137 -70 -214 -53
-184 5 8 39 71 77 140 100 183 199 330 336 497 67 81 129 159 138 173 8 14 21
28 28 33 6 4 17 23 23 43 l12 36 -81 82 c-45 46 -88 83 -95 83 -7 0 -47 -61
-89 -136z"/>
<path d="M1361 3275 c-88 -111 -196 -274 -271 -408 -39 -71 -70 -131 -67 -133
8 -9 86 85 111 134 43 84 166 293 228 385 32 48 57 87 54 87 -2 0 -27 -29 -55
-65z"/>
<path d="M3623 3264 c-32 -36 -62 -73 -67 -81 -6 -12 20 -44 112 -136 l120
-120 20 39 c11 21 31 71 45 110 l25 71 -91 91 c-51 51 -95 92 -99 92 -4 0 -33
-30 -65 -66z"/>
<path d="M4240 3159 c0 -6 -19 -58 -42 -116 l-41 -105 96 -96 97 -97 82 83 83
82 -130 130 c-71 71 -133 130 -137 130 -5 0 -8 -5 -8 -11z"/>
<path d="M3489 3103 c-37 -40 -211 -260 -300 -378 -111 -147 -156 -216 -214
-329 -28 -55 -91 -177 -139 -269 -49 -93 -86 -170 -84 -173 3 -2 26 5 52 16
54 23 60 24 51 10 -3 -6 1 -7 9 -4 9 3 13 10 10 15 -3 5 1 6 8 4 28 -11 346
193 334 214 -3 4 16 25 41 46 26 22 43 34 39 27 -19 -32 16 -5 74 55 36 37 56
60 45 52 -11 -8 0 10 24 39 24 28 46 52 49 52 3 0 -3 -10 -14 -22 l-19 -23 22
19 c13 10 21 22 19 25 -3 4 5 18 16 31 11 14 16 19 12 11 -5 -9 -3 -12 5 -7 6
4 10 10 7 14 -2 4 27 49 64 101 38 52 90 130 116 173 l48 79 -125 125 -125
125 -25 -28z"/>
<path d="M4007 2854 c-51 -101 -51 -104 -38 -104 9 0 94 190 88 196 -1 2 -24
-39 -50 -92z"/>
<path d="M4082 2788 l-53 -102 65 -65 66 -66 77 78 78 77 -90 90 -90 89 -53
-101z"/>
<path d="M730 2795 l-75 -75 26 -25 25 -25 53 100 c29 55 51 100 49 100 -2 0
-37 -34 -78 -75z"/>
<path d="M3883 2647 c-62 -90 -417 -502 -491 -569 -149 -134 -459 -288 -582
-288 l-32 0 47 -87 c26 -49 55 -95 64 -104 9 -8 40 -52 70 -97 29 -45 56 -82
60 -82 3 0 253 247 556 550 l550 550 -60 60 c-33 33 -63 59 -66 58 -4 -2 -40
-46 -80 -98 -140 -182 -372 -404 -452 -433 -9 -4 38 49 105 116 138 137 224
240 310 371 54 82 69 116 51 116 -5 0 -27 -28 -50 -63z"/>
<path d="M535 2600 l-80 -80 66 -66 67 -66 12 38 c7 22 28 75 47 118 l34 79
-27 28 c-15 16 -30 29 -34 29 -3 0 -41 -36 -85 -80z"/>
<path d="M4270 2595 l-75 -75 80 -80 80 -80 77 77 78 78 -77 77 c-43 43 -80
78 -83 78 -3 0 -39 -34 -80 -75z"/>
<path d="M980 2615 c-39 -40 -83 -135 -69 -149 5 -5 10 -8 13 -5 7 7 96 189
93 189 -2 0 -18 -16 -37 -35z"/>
<path d="M3601 1926 l-554 -554 63 -89 c35 -48 65 -90 67 -93 2 -2 260 252
573 565 l570 570 -77 77 c-43 43 -80 78 -83 78 -3 0 -254 -249 -559 -554z"/>
<path d="M864 2383 c-32 -76 -74 -196 -71 -200 2 -2 16 22 30 54 14 32 37 84
51 115 15 35 21 60 15 63 -5 4 -17 -11 -25 -32z"/>
<path d="M944 2305 c-9 -22 -29 -76 -46 -119 l-29 -80 346 -345 346 -346 25
30 c14 17 46 59 71 93 l46 64 -371 371 -371 371 -17 -39z"/>
<path d="M3787 1722 c-312 -312 -567 -570 -567 -574 0 -4 35 -47 79 -96 l78
-90 577 577 576 576 -88 88 -87 87 -568 -568z"/>
<path d="M3250 2240 c-19 -17 -30 -30 -24 -30 6 0 23 14 39 30 36 38 30 38
-15 0z"/>
<path d="M841 2028 c-5 -14 -24 -65 -41 -114 l-31 -88 305 -305 305 -305 37
34 c20 19 53 56 74 81 l39 45 -339 339 c-327 327 -339 338 -349 313z"/>
<path d="M727 1693 c-61 -201 -92 -397 -86 -541 3 -67 9 -89 40 -147 55 -104
113 -125 252 -89 120 31 239 102 382 228 l40 35 -301 301 -300 301 -27 -88z"/>
<path d="M2600 1635 c-75 -172 -163 -433 -194 -580 l-15 -70 50 -50 49 -50
170 170 169 169 -56 106 c-31 58 -71 133 -89 167 -18 35 -36 80 -39 100 -4 21
-10 49 -15 63 -7 24 -9 22 -30 -25z"/>
<path d="M1788 1351 l-55 -109 376 -376 376 -376 234 234 c203 203 232 236
226 256 -4 12 -8 36 -9 53 -1 17 -8 33 -14 35 -7 2 -21 20 -32 40 -11 21 -24
44 -29 52 -9 12 -45 -19 -191 -165 l-180 -180 -56 56 -56 56 -47 -26 c-90 -50
-205 -27 -243 49 -21 41 -24 147 -7 217 l12 45 -125 125 -124 124 -56 -110z"/>
<path d="M1638 1112 l-67 -87 467 -468 c257 -257 469 -466 472 -465 3 2 144
143 313 314 l308 311 -55 67 c-31 37 -63 80 -73 96 -9 17 -20 30 -23 30 -3 0
-113 -108 -245 -240 -132 -132 -244 -240 -250 -240 -5 0 -183 173 -395 385
l-385 385 -67 -88z"/>
</g>
</svg>
